<?xml version="1.0" encoding="UTF-8"?>
<!DOCTYPE svg PUBLIC "-//W3C//DTD SVG 1.1//EN" "http://www.w3.org/Graphics/SVG/1.1/DTD/svg11.dtd">
<svg version="1.1" xmlns="http://www.w3.org/2000/svg" xmlns:xlink="http://www.w3.org/1999/xlink" x="0" y="0" width="100" height="100" viewBox="0, 0, 100, 100">
  <g id="Layer_1">
    <path d="M50,96.848 C24.127,96.848 3.152,75.873 3.152,50 C3.152,24.127 24.127,3.152 50,3.152 C75.873,3.152 96.848,24.127 96.848,50 C96.848,75.873 75.873,96.848 50,96.848 z" fill="#40627C"/>
    <g>
      <path d="M81.416,36.254 C73.548,28.385 60.791,28.385 52.923,36.254 L81.416,64.746 C73.548,72.615 60.791,72.615 52.923,64.746" fill-opacity="0" stroke="#FFFAE4" stroke-width="3"/>
      <path d="M19.584,30.285 L19.584,70.714 L27.036,70.714 C27.036,70.714 48.609,71.202 48.609,50.556 C48.609,29.91 27.036,30.285 27.036,30.285 L19.584,30.285 z" fill-opacity="0" stroke="#FFFAE4" stroke-width="3"/>
    </g>
  </g>
</svg>
